<?xml version="1.0" encoding="utf-8"?>
<!-- Generator: Adobe Illustrator 23.0.0, SVG Export Plug-In . SVG Version: 6.00 Build 0)  -->
<svg version="1.1" id="Capa_1" xmlns="http://www.w3.org/2000/svg" xmlns:xlink="http://www.w3.org/1999/xlink" x="0px" y="0px"
	 viewBox="0 0 286 300" style="enable-background:new 0 0 286 300;" xml:space="preserve">
<style type="text/css">
	.st0{fill:#29ABE2;}
	.st1{fill:#8BC73A;}
	.st2{fill:#FFFFFF;}
</style>
<path class="st0" d="M79.3,268.1c-7.2-1.4-13.4-5.8-17.1-12.1c-3.7-6.3-4.4-13.9-2.1-20.8L78.2,170c-15.1-1.3-28.6-11.2-34.1-26.2
	L31.7,110c-1.1-3.1,0.4-6.5,3.5-7.6c0.2-0.1,0.3-0.1,0.5-0.2c3-0.8,6.1,0.8,7.2,3.7l12.4,33.8c4.2,11.3,14.7,18.5,26.2,18.6
	L107,66.8L17.3,89.6c-6.5,1.6-10.7,7.8-10,14.5l21.6,170.5c0.9,8.4,9.1,14,17.2,11.9l55.5-14.1L79.3,268.1z"/>
<path class="st1" d="M201.3,67.3l-21.7-4l4-21.7c1.5-8,9.1-13.2,17.1-11.7l21.7,4l-4,21.7C217,63.5,209.3,68.8,201.3,67.3z"/>
<path class="st1" d="M254.5,51.7l-21.7-4l4-21.7c1.5-8,9.1-13.2,17.1-11.7l21.7,4l-4,21.7C270.1,47.9,262.4,53.2,254.5,51.7z"/>
<path class="st0" d="M158.9,32.1l-15.1-2.8l2.8-15.1c0.9-4.9,5.6-8.2,10.6-7.3l15.1,2.8l-2.8,15.1C168.5,29.7,163.8,33,158.9,32.1z"
	/>
<g>
	<path class="st1" d="M277.2,104.3c0.2-6.6-4.4-12.3-10.9-13.5L138.7,66.3c-0.8-0.2-1.7-0.2-2.5-0.2c-5.6,0-10.8,3.6-12.7,9.1
		L70.9,238.8c-2.7,8,2.3,16.5,10.5,18.1l171.5,32.9c0.9,0.2,1.8,0.3,2.6,0.3c7.3,0,13.6-5.8,13.9-13.5L277.2,104.3z"/>
	<path class="st2" d="M141.1,102.5l-3.9,35.8c-2.3,20.8,11.5,39.7,32,43.9l21.3,4.4c0.2,0,0.3,0.1,0.5,0.1
		c20.4,3.9,40.8-8.6,46.4-28.7l9.8-35.1c0.9-3.2-1-6.4-4.1-7.3c-0.2,0-0.3-0.1-0.5-0.1c-3-0.6-6,1.2-6.8,4.2l-9.8,35.1
		c-4,14.1-18.2,23-32.6,20.2c-0.1,0-0.3-0.1-0.4-0.1l-21.3-4.4c-14.5-3-24.2-16.3-22.5-30.9l3.9-35.8c0.3-3.1-1.7-5.9-4.8-6.5
		c-0.2,0-0.3-0.1-0.5-0.1C144.4,96.9,141.5,99.3,141.1,102.5z"/>
</g>
</svg>
